# xmcd
#
# Track frame offsets: 
#        150
#        18007
#        44319
#        57087
#        77158
#        93101
#        108832
#        128766
#        147664
#        160891
#        182893
#        199652
#        209649
#        226504
#        236310
#        249438
#        268614
#        278784
#
# Disc length: 3971 seconds
#
# Revision: 5
# Processed by: cddbd v1.5.2PL0 Copyright (c) Steve Scherf et al.
# Submitted via: ExactAudioCopyFreeDBPlugin 1.0
#
DISCID=eb0f8112
DTITLE=Various Artist - Jazzclub Moods - Swinging Classsics
DYEAR=2006
DGENRE=Jazz
TTITLE0=Eugen Cicero - Sonata in C (Domenico Scarlatti)
TTITLE1=Bill Evans Trio - Valse (Siciliano In G Minor - J. S. Bach)
TTITLE2=Stan Getz - Once (Gabriel Faure)
TTITLE3=Hank Jones - Fugue Tune (J. S. Bach)
TTITLE4=George Gruntz - The Ladies' Chamber (G. P. Telemann)
TTITLE5=Claude Bolling - Bach To Swing
TTITLE6=Klauss Weiss Trio - Greensleeves
TTITLE7=The Singers Unlimited - Air (From Suite In D - J. S. Bach)
TTITLE8=Gary McFarland - Reverie (Claude Debussy)
TTITLE9=Jacques Loussier - Chorale No. 1 'Sleepers, awake' (J. S. Bach
TTITLE9=)
TTITLE10=George Shearing - The Lamp Is Low (Maurice Ravel)
TTITLE11=Horst Jankowski Quartet - Appassionata (Ludwig van Beethoven)
TTITLE12=Ingfried Hoffmann - Italian Concerto No. 1 (J. S. Bach)
TTITLE13=The Swingle Singers - Piano Sonata No. 15 in C Majo, Allegro 
TTITLE13=(W. A. Mozart)
TTITLE14=Johnny Teupen - Concerto For Harp And Orchestra Op. 4, No. 6 
TTITLE14=in B flat, 1st movement (G. F. Haendel)
TTITLE15=Siegfried Schwab - Allemande In A major (J. S. Bach)
TTITLE16=Raymond Fol - The 4 Seasons: Summer, 2nd movement, Adagio (An
TTITLE16=tonio Vivaldi)
TTITLE17=Gerry Mulligan - Prelude in E Minor (Frédéric Chopin)
EXTD=YEAR: 2006
EXTT0=
EXTT1=
EXTT2=
EXTT3=
EXTT4=
EXTT5=
EXTT6=
EXTT7=
EXTT8=
EXTT9=
EXTT10=
EXTT11=
EXTT12=
EXTT13=
EXTT14=
EXTT15=
EXTT16=
EXTT17=
PLAYORDER=
